<svg version="1" xmlns="http://www.w3.org/2000/svg" width="346.667" height="346.667" viewBox="0 0 260.000000 260.000000"><path d="M118.4 16.1c-19.5 4.8-33.7 17.8-40 36.7-4.6 13.5-3.4 24.6 4 39.1l3.5 6.9-4.1.6c-2.2.4-7.7 2.1-12.2 3.8-14.5 5.6-22.8 16.5-22 28.9.3 5.7 3.5 12.2 8.2 16.7 4.3 4.3 15.3 9.4 24.8 11.7l7.1 1.7-3.3 5.5c-9.6 16.1-11.4 30.8-5.5 46.3 4.7 12.3 15.7 24.1 27.6 29.6 7.3 3.3 16.3 5.7 17.9 4.7.5-.3.6-.2.3.4-.3.5 1.6.9 4.9 1 3 0 5.4-.4 5.4-.9s.3-.7.8-.4c1.7 1 11.1-1.6 18.2-5.1 13.1-6.4 23.9-18.8 28.1-32.2 2.6-8.3 3.1-19.7 1.3-25.9-1.8-5.8-6.7-16.4-9.4-20.2-1.1-1.5-2-3.1-2-3.4 0-.3 1.7-.8 3.8-1.2 12-2.2 25.9-9.5 30.4-16 7.6-11 7-22.7-1.8-32.4-5.3-5.9-20.2-12.9-27.5-13h-2.7l3.4-6.4c5.8-10.8 7.3-16.6 7-25.9-.9-28.3-24.6-51.2-54.1-52.2-2.7-.1-8.2.6-12.1 1.6zM159.5 121c.3.5.1 1-.4 1-.6 0-1.1-.5-1.1-1 0-.6.2-1 .4-1 .3 0 .8.4 1.1 1zm-56.5 1c0 .5-.2 1-.4 1-.3 0-.8-.5-1.1-1-.3-.6-.1-1 .4-1 .6 0 1.1.4 1.1 1z"/><path d="M45 24.5C31.5 28.2 24.2 34.9 20.6 47c-1.5 5-1.7 22.6-.3 28.5C23 87.2 24 110.1 22 114.1c-2.1 4.1-6.2 7.8-9.9 9-3.2 1.1-5 1.4-9.8 1.8-.9.1-1.3 2.2-1.3 7v6.8l5.3.6c7.1.7 12.1 3.8 14.7 9.2 3.1 6.4 3 15-.4 37-.8 4.9-1.3 13.7-1.2 19.5.2 8.8.7 11.4 2.8 16.1 3.4 7.5 7.9 12.3 14.2 15.3 6.6 3.2 9 3.7 19.9 4.3l8.7.5V226l-3.7-.1c-12.5-.2-17.1-2.8-21.2-11.9-1.7-3.8-1.9-6-1.5-15 .4-10.4.6-12.7 1.9-18.5.3-1.7.8-8.4 1-15 .7-18.3-2.6-25.7-13.8-31.4-5.7-3-5.8-3-3-3.7 5.3-1.3 11.2-6.5 14.1-12.3 2.4-5.1 2.7-6.7 2.7-16.6 0-10.3-1-21.9-2.1-23.7-.3-.4-.7-5.5-.9-11.2-.6-13 1-19.1 6-23.5 4-3.5 9-5.1 15.8-5.1H65V22.9l-7.7.2c-4.3.1-9.8.8-12.3 1.4zM195.4 29.8c.1 3.9.4 7.3.7 7.7.4.3 3.4.8 6.7 1 8.4.4 13.5 3.4 16.7 9.9 2.4 4.7 2.5 5.8 2.1 16.6-.3 6.3-1 14-1.6 17-.6 3-1.3 9.6-1.7 14.6-1.1 17.6 3.3 27.5 14.9 32.9l4.6 2.2-4.3 1.7c-6.5 2.7-12.6 9.9-14.2 16.8-1 4.1-1 19.6 0 26.3 3.2 22.4 3.4 28.8 1.2 36.2-2.6 8.6-9.8 13.3-20.6 13.3h-4.5l-.1 7.6v7.7l9.6-.6c26-1.4 37.2-14.5 35.8-42.2-.3-6-.8-12.1-1.1-13.5-1.2-5.4-1.7-11-2.2-21.5-.5-9.6-.3-11.4 1.4-14.5 2.8-5.1 8.9-9.1 15.3-9.8l5.4-.7v-13.7l-4.7-.3c-2.6-.2-6.2-1.1-8.1-2-7.1-3.4-9.7-8.7-9.7-19.9 0-6.4.4-10.1 2.5-24.1 1.7-10.9 1.7-26.3.1-31.7-4.2-14.6-16-22.5-35.2-23.5l-9-.5v7z"/></svg>